G04 #@! TF.GenerationSoftware,KiCad,Pcbnew,(5.1.2)-2*
G04 #@! TF.CreationDate,2019-08-21T01:30:02+02:00*
G04 #@! TF.ProjectId,pmod-dice2,706d6f64-2d64-4696-9365-322e6b696361,rev?*
G04 #@! TF.SameCoordinates,Original*
G04 #@! TF.FileFunction,Soldermask,Bot*
G04 #@! TF.FilePolarity,Negative*
%FSLAX46Y46*%
G04 Gerber Fmt 4.6, Leading zero omitted, Abs format (unit mm)*
G04 Created by KiCad (PCBNEW (5.1.2)-2) date 2019-08-21 01:30:02*
%MOMM*%
%LPD*%
G04 APERTURE LIST*
%ADD10C,0.100000*%
G04 APERTURE END LIST*
D10*
G36*
X37049059Y-29757860D02*
G01*
X37185732Y-29814472D01*
X37308735Y-29896660D01*
X37413340Y-30001265D01*
X37453081Y-30060742D01*
X37495529Y-30124270D01*
X37552140Y-30260941D01*
X37581000Y-30406032D01*
X37581000Y-30553968D01*
X37552140Y-30699059D01*
X37495528Y-30835732D01*
X37413340Y-30958735D01*
X37308735Y-31063340D01*
X37185732Y-31145528D01*
X37185731Y-31145529D01*
X37185730Y-31145529D01*
X37049059Y-31202140D01*
X36903968Y-31231000D01*
X36756032Y-31231000D01*
X36610941Y-31202140D01*
X36474270Y-31145529D01*
X36474269Y-31145529D01*
X36474268Y-31145528D01*
X36351265Y-31063340D01*
X36246660Y-30958735D01*
X36164472Y-30835732D01*
X36107860Y-30699059D01*
X36079000Y-30553968D01*
X36079000Y-30406032D01*
X36107860Y-30260941D01*
X36164471Y-30124270D01*
X36206919Y-30060742D01*
X36246660Y-30001265D01*
X36351265Y-29896660D01*
X36474268Y-29814472D01*
X36610941Y-29757860D01*
X36756032Y-29729000D01*
X36903968Y-29729000D01*
X37049059Y-29757860D01*
X37049059Y-29757860D01*
G37*
G36*
X28053512Y-29075927D02*
G01*
X28202812Y-29105624D01*
X28366784Y-29173544D01*
X28514354Y-29272147D01*
X28639853Y-29397646D01*
X28738456Y-29545216D01*
X28806376Y-29709188D01*
X28841000Y-29883259D01*
X28841000Y-30060741D01*
X28806376Y-30234812D01*
X28738456Y-30398784D01*
X28639853Y-30546354D01*
X28514354Y-30671853D01*
X28366784Y-30770456D01*
X28202812Y-30838376D01*
X28053512Y-30868073D01*
X28028742Y-30873000D01*
X27851258Y-30873000D01*
X27826488Y-30868073D01*
X27677188Y-30838376D01*
X27513216Y-30770456D01*
X27365646Y-30671853D01*
X27240147Y-30546354D01*
X27141544Y-30398784D01*
X27073624Y-30234812D01*
X27039000Y-30060741D01*
X27039000Y-29883259D01*
X27073624Y-29709188D01*
X27141544Y-29545216D01*
X27240147Y-29397646D01*
X27365646Y-29272147D01*
X27513216Y-29173544D01*
X27677188Y-29105624D01*
X27826488Y-29075927D01*
X27851258Y-29071000D01*
X28028742Y-29071000D01*
X28053512Y-29075927D01*
X28053512Y-29075927D01*
G37*
G36*
X25510442Y-29077518D02*
G01*
X25576627Y-29084037D01*
X25746466Y-29135557D01*
X25902991Y-29219222D01*
X25938729Y-29248552D01*
X26040186Y-29331814D01*
X26123448Y-29433271D01*
X26152778Y-29469009D01*
X26236443Y-29625534D01*
X26287963Y-29795373D01*
X26305359Y-29972000D01*
X26287963Y-30148627D01*
X26236443Y-30318466D01*
X26152778Y-30474991D01*
X26123448Y-30510729D01*
X26040186Y-30612186D01*
X25967480Y-30671853D01*
X25902991Y-30724778D01*
X25746466Y-30808443D01*
X25576627Y-30859963D01*
X25510443Y-30866481D01*
X25444260Y-30873000D01*
X25355740Y-30873000D01*
X25289557Y-30866481D01*
X25223373Y-30859963D01*
X25053534Y-30808443D01*
X24897009Y-30724778D01*
X24832520Y-30671853D01*
X24759814Y-30612186D01*
X24676552Y-30510729D01*
X24647222Y-30474991D01*
X24563557Y-30318466D01*
X24512037Y-30148627D01*
X24494641Y-29972000D01*
X24512037Y-29795373D01*
X24563557Y-29625534D01*
X24647222Y-29469009D01*
X24676552Y-29433271D01*
X24759814Y-29331814D01*
X24861271Y-29248552D01*
X24897009Y-29219222D01*
X25053534Y-29135557D01*
X25223373Y-29084037D01*
X25289558Y-29077518D01*
X25355740Y-29071000D01*
X25444260Y-29071000D01*
X25510442Y-29077518D01*
X25510442Y-29077518D01*
G37*
G36*
X37049059Y-27217860D02*
G01*
X37185732Y-27274472D01*
X37308735Y-27356660D01*
X37413340Y-27461265D01*
X37495528Y-27584268D01*
X37552140Y-27720941D01*
X37581000Y-27866033D01*
X37581000Y-28013967D01*
X37552140Y-28159059D01*
X37495528Y-28295732D01*
X37413340Y-28418735D01*
X37308735Y-28523340D01*
X37185732Y-28605528D01*
X37185731Y-28605529D01*
X37185730Y-28605529D01*
X37049059Y-28662140D01*
X36903968Y-28691000D01*
X36756032Y-28691000D01*
X36610941Y-28662140D01*
X36474270Y-28605529D01*
X36474269Y-28605529D01*
X36474268Y-28605528D01*
X36351265Y-28523340D01*
X36246660Y-28418735D01*
X36164472Y-28295732D01*
X36107860Y-28159059D01*
X36079000Y-28013967D01*
X36079000Y-27866033D01*
X36107860Y-27720941D01*
X36164472Y-27584268D01*
X36246660Y-27461265D01*
X36351265Y-27356660D01*
X36474268Y-27274472D01*
X36610941Y-27217860D01*
X36756032Y-27189000D01*
X36903968Y-27189000D01*
X37049059Y-27217860D01*
X37049059Y-27217860D01*
G37*
G36*
X25510443Y-26537519D02*
G01*
X25576627Y-26544037D01*
X25746466Y-26595557D01*
X25902991Y-26679222D01*
X25938729Y-26708552D01*
X26040186Y-26791814D01*
X26123448Y-26893271D01*
X26152778Y-26929009D01*
X26236443Y-27085534D01*
X26287963Y-27255373D01*
X26305359Y-27432000D01*
X26287963Y-27608627D01*
X26236443Y-27778466D01*
X26152778Y-27934991D01*
X26123448Y-27970729D01*
X26040186Y-28072186D01*
X25938729Y-28155448D01*
X25902991Y-28184778D01*
X25746466Y-28268443D01*
X25576627Y-28319963D01*
X25510442Y-28326482D01*
X25444260Y-28333000D01*
X25355740Y-28333000D01*
X25289558Y-28326482D01*
X25223373Y-28319963D01*
X25053534Y-28268443D01*
X24897009Y-28184778D01*
X24861271Y-28155448D01*
X24759814Y-28072186D01*
X24676552Y-27970729D01*
X24647222Y-27934991D01*
X24563557Y-27778466D01*
X24512037Y-27608627D01*
X24494641Y-27432000D01*
X24512037Y-27255373D01*
X24563557Y-27085534D01*
X24647222Y-26929009D01*
X24676552Y-26893271D01*
X24759814Y-26791814D01*
X24861271Y-26708552D01*
X24897009Y-26679222D01*
X25053534Y-26595557D01*
X25223373Y-26544037D01*
X25289557Y-26537519D01*
X25355740Y-26531000D01*
X25444260Y-26531000D01*
X25510443Y-26537519D01*
X25510443Y-26537519D01*
G37*
G36*
X28050443Y-26537519D02*
G01*
X28116627Y-26544037D01*
X28286466Y-26595557D01*
X28442991Y-26679222D01*
X28478729Y-26708552D01*
X28580186Y-26791814D01*
X28663448Y-26893271D01*
X28692778Y-26929009D01*
X28776443Y-27085534D01*
X28827963Y-27255373D01*
X28845359Y-27432000D01*
X28827963Y-27608627D01*
X28776443Y-27778466D01*
X28692778Y-27934991D01*
X28663448Y-27970729D01*
X28580186Y-28072186D01*
X28478729Y-28155448D01*
X28442991Y-28184778D01*
X28286466Y-28268443D01*
X28116627Y-28319963D01*
X28050442Y-28326482D01*
X27984260Y-28333000D01*
X27895740Y-28333000D01*
X27829558Y-28326482D01*
X27763373Y-28319963D01*
X27593534Y-28268443D01*
X27437009Y-28184778D01*
X27401271Y-28155448D01*
X27299814Y-28072186D01*
X27216552Y-27970729D01*
X27187222Y-27934991D01*
X27103557Y-27778466D01*
X27052037Y-27608627D01*
X27034641Y-27432000D01*
X27052037Y-27255373D01*
X27103557Y-27085534D01*
X27187222Y-26929009D01*
X27216552Y-26893271D01*
X27299814Y-26791814D01*
X27401271Y-26708552D01*
X27437009Y-26679222D01*
X27593534Y-26595557D01*
X27763373Y-26544037D01*
X27829557Y-26537519D01*
X27895740Y-26531000D01*
X27984260Y-26531000D01*
X28050443Y-26537519D01*
X28050443Y-26537519D01*
G37*
G36*
X25510443Y-23997519D02*
G01*
X25576627Y-24004037D01*
X25746466Y-24055557D01*
X25902991Y-24139222D01*
X25938729Y-24168552D01*
X26040186Y-24251814D01*
X26123448Y-24353271D01*
X26152778Y-24389009D01*
X26236443Y-24545534D01*
X26287963Y-24715373D01*
X26305359Y-24892000D01*
X26287963Y-25068627D01*
X26236443Y-25238466D01*
X26152778Y-25394991D01*
X26123448Y-25430729D01*
X26040186Y-25532186D01*
X25938729Y-25615448D01*
X25902991Y-25644778D01*
X25746466Y-25728443D01*
X25576627Y-25779963D01*
X25510442Y-25786482D01*
X25444260Y-25793000D01*
X25355740Y-25793000D01*
X25289557Y-25786481D01*
X25223373Y-25779963D01*
X25053534Y-25728443D01*
X24897009Y-25644778D01*
X24861271Y-25615448D01*
X24759814Y-25532186D01*
X24676552Y-25430729D01*
X24647222Y-25394991D01*
X24563557Y-25238466D01*
X24512037Y-25068627D01*
X24494641Y-24892000D01*
X24512037Y-24715373D01*
X24563557Y-24545534D01*
X24647222Y-24389009D01*
X24676552Y-24353271D01*
X24759814Y-24251814D01*
X24861271Y-24168552D01*
X24897009Y-24139222D01*
X25053534Y-24055557D01*
X25223373Y-24004037D01*
X25289558Y-23997518D01*
X25355740Y-23991000D01*
X25444260Y-23991000D01*
X25510443Y-23997519D01*
X25510443Y-23997519D01*
G37*
G36*
X28050443Y-23997519D02*
G01*
X28116627Y-24004037D01*
X28286466Y-24055557D01*
X28442991Y-24139222D01*
X28478729Y-24168552D01*
X28580186Y-24251814D01*
X28663448Y-24353271D01*
X28692778Y-24389009D01*
X28776443Y-24545534D01*
X28827963Y-24715373D01*
X28845359Y-24892000D01*
X28827963Y-25068627D01*
X28776443Y-25238466D01*
X28692778Y-25394991D01*
X28663448Y-25430729D01*
X28580186Y-25532186D01*
X28478729Y-25615448D01*
X28442991Y-25644778D01*
X28286466Y-25728443D01*
X28116627Y-25779963D01*
X28050442Y-25786482D01*
X27984260Y-25793000D01*
X27895740Y-25793000D01*
X27829557Y-25786481D01*
X27763373Y-25779963D01*
X27593534Y-25728443D01*
X27437009Y-25644778D01*
X27401271Y-25615448D01*
X27299814Y-25532186D01*
X27216552Y-25430729D01*
X27187222Y-25394991D01*
X27103557Y-25238466D01*
X27052037Y-25068627D01*
X27034641Y-24892000D01*
X27052037Y-24715373D01*
X27103557Y-24545534D01*
X27187222Y-24389009D01*
X27216552Y-24353271D01*
X27299814Y-24251814D01*
X27401271Y-24168552D01*
X27437009Y-24139222D01*
X27593534Y-24055557D01*
X27763373Y-24004037D01*
X27829558Y-23997518D01*
X27895740Y-23991000D01*
X27984260Y-23991000D01*
X28050443Y-23997519D01*
X28050443Y-23997519D01*
G37*
G36*
X28050443Y-21457519D02*
G01*
X28116627Y-21464037D01*
X28286466Y-21515557D01*
X28442991Y-21599222D01*
X28478729Y-21628552D01*
X28580186Y-21711814D01*
X28663448Y-21813271D01*
X28692778Y-21849009D01*
X28776443Y-22005534D01*
X28827963Y-22175373D01*
X28845359Y-22352000D01*
X28827963Y-22528627D01*
X28776443Y-22698466D01*
X28692778Y-22854991D01*
X28663448Y-22890729D01*
X28580186Y-22992186D01*
X28478729Y-23075448D01*
X28442991Y-23104778D01*
X28286466Y-23188443D01*
X28116627Y-23239963D01*
X28050443Y-23246481D01*
X27984260Y-23253000D01*
X27895740Y-23253000D01*
X27829557Y-23246481D01*
X27763373Y-23239963D01*
X27593534Y-23188443D01*
X27437009Y-23104778D01*
X27401271Y-23075448D01*
X27299814Y-22992186D01*
X27216552Y-22890729D01*
X27187222Y-22854991D01*
X27103557Y-22698466D01*
X27052037Y-22528627D01*
X27034641Y-22352000D01*
X27052037Y-22175373D01*
X27103557Y-22005534D01*
X27187222Y-21849009D01*
X27216552Y-21813271D01*
X27299814Y-21711814D01*
X27401271Y-21628552D01*
X27437009Y-21599222D01*
X27593534Y-21515557D01*
X27763373Y-21464037D01*
X27829557Y-21457519D01*
X27895740Y-21451000D01*
X27984260Y-21451000D01*
X28050443Y-21457519D01*
X28050443Y-21457519D01*
G37*
G36*
X25510443Y-21457519D02*
G01*
X25576627Y-21464037D01*
X25746466Y-21515557D01*
X25902991Y-21599222D01*
X25938729Y-21628552D01*
X26040186Y-21711814D01*
X26123448Y-21813271D01*
X26152778Y-21849009D01*
X26236443Y-22005534D01*
X26287963Y-22175373D01*
X26305359Y-22352000D01*
X26287963Y-22528627D01*
X26236443Y-22698466D01*
X26152778Y-22854991D01*
X26123448Y-22890729D01*
X26040186Y-22992186D01*
X25938729Y-23075448D01*
X25902991Y-23104778D01*
X25746466Y-23188443D01*
X25576627Y-23239963D01*
X25510443Y-23246481D01*
X25444260Y-23253000D01*
X25355740Y-23253000D01*
X25289557Y-23246481D01*
X25223373Y-23239963D01*
X25053534Y-23188443D01*
X24897009Y-23104778D01*
X24861271Y-23075448D01*
X24759814Y-22992186D01*
X24676552Y-22890729D01*
X24647222Y-22854991D01*
X24563557Y-22698466D01*
X24512037Y-22528627D01*
X24494641Y-22352000D01*
X24512037Y-22175373D01*
X24563557Y-22005534D01*
X24647222Y-21849009D01*
X24676552Y-21813271D01*
X24759814Y-21711814D01*
X24861271Y-21628552D01*
X24897009Y-21599222D01*
X25053534Y-21515557D01*
X25223373Y-21464037D01*
X25289557Y-21457519D01*
X25355740Y-21451000D01*
X25444260Y-21451000D01*
X25510443Y-21457519D01*
X25510443Y-21457519D01*
G37*
G36*
X25510442Y-18917518D02*
G01*
X25576627Y-18924037D01*
X25746466Y-18975557D01*
X25902991Y-19059222D01*
X25938729Y-19088552D01*
X26040186Y-19171814D01*
X26123448Y-19273271D01*
X26152778Y-19309009D01*
X26236443Y-19465534D01*
X26287963Y-19635373D01*
X26305359Y-19812000D01*
X26287963Y-19988627D01*
X26236443Y-20158466D01*
X26152778Y-20314991D01*
X26123448Y-20350729D01*
X26040186Y-20452186D01*
X25938729Y-20535448D01*
X25902991Y-20564778D01*
X25746466Y-20648443D01*
X25576627Y-20699963D01*
X25510443Y-20706481D01*
X25444260Y-20713000D01*
X25355740Y-20713000D01*
X25289557Y-20706481D01*
X25223373Y-20699963D01*
X25053534Y-20648443D01*
X24897009Y-20564778D01*
X24861271Y-20535448D01*
X24759814Y-20452186D01*
X24676552Y-20350729D01*
X24647222Y-20314991D01*
X24563557Y-20158466D01*
X24512037Y-19988627D01*
X24494641Y-19812000D01*
X24512037Y-19635373D01*
X24563557Y-19465534D01*
X24647222Y-19309009D01*
X24676552Y-19273271D01*
X24759814Y-19171814D01*
X24861271Y-19088552D01*
X24897009Y-19059222D01*
X25053534Y-18975557D01*
X25223373Y-18924037D01*
X25289558Y-18917518D01*
X25355740Y-18911000D01*
X25444260Y-18911000D01*
X25510442Y-18917518D01*
X25510442Y-18917518D01*
G37*
G36*
X28050442Y-18917518D02*
G01*
X28116627Y-18924037D01*
X28286466Y-18975557D01*
X28442991Y-19059222D01*
X28478729Y-19088552D01*
X28580186Y-19171814D01*
X28663448Y-19273271D01*
X28692778Y-19309009D01*
X28776443Y-19465534D01*
X28827963Y-19635373D01*
X28845359Y-19812000D01*
X28827963Y-19988627D01*
X28776443Y-20158466D01*
X28692778Y-20314991D01*
X28663448Y-20350729D01*
X28580186Y-20452186D01*
X28478729Y-20535448D01*
X28442991Y-20564778D01*
X28286466Y-20648443D01*
X28116627Y-20699963D01*
X28050443Y-20706481D01*
X27984260Y-20713000D01*
X27895740Y-20713000D01*
X27829557Y-20706481D01*
X27763373Y-20699963D01*
X27593534Y-20648443D01*
X27437009Y-20564778D01*
X27401271Y-20535448D01*
X27299814Y-20452186D01*
X27216552Y-20350729D01*
X27187222Y-20314991D01*
X27103557Y-20158466D01*
X27052037Y-19988627D01*
X27034641Y-19812000D01*
X27052037Y-19635373D01*
X27103557Y-19465534D01*
X27187222Y-19309009D01*
X27216552Y-19273271D01*
X27299814Y-19171814D01*
X27401271Y-19088552D01*
X27437009Y-19059222D01*
X27593534Y-18975557D01*
X27763373Y-18924037D01*
X27829558Y-18917518D01*
X27895740Y-18911000D01*
X27984260Y-18911000D01*
X28050442Y-18917518D01*
X28050442Y-18917518D01*
G37*
G36*
X25510442Y-16377518D02*
G01*
X25576627Y-16384037D01*
X25746466Y-16435557D01*
X25902991Y-16519222D01*
X25938729Y-16548552D01*
X26040186Y-16631814D01*
X26123448Y-16733271D01*
X26152778Y-16769009D01*
X26236443Y-16925534D01*
X26287963Y-17095373D01*
X26305359Y-17272000D01*
X26287963Y-17448627D01*
X26236443Y-17618466D01*
X26152778Y-17774991D01*
X26123448Y-17810729D01*
X26040186Y-17912186D01*
X25938729Y-17995448D01*
X25902991Y-18024778D01*
X25746466Y-18108443D01*
X25576627Y-18159963D01*
X25510442Y-18166482D01*
X25444260Y-18173000D01*
X25355740Y-18173000D01*
X25289558Y-18166482D01*
X25223373Y-18159963D01*
X25053534Y-18108443D01*
X24897009Y-18024778D01*
X24861271Y-17995448D01*
X24759814Y-17912186D01*
X24676552Y-17810729D01*
X24647222Y-17774991D01*
X24563557Y-17618466D01*
X24512037Y-17448627D01*
X24494641Y-17272000D01*
X24512037Y-17095373D01*
X24563557Y-16925534D01*
X24647222Y-16769009D01*
X24676552Y-16733271D01*
X24759814Y-16631814D01*
X24861271Y-16548552D01*
X24897009Y-16519222D01*
X25053534Y-16435557D01*
X25223373Y-16384037D01*
X25289558Y-16377518D01*
X25355740Y-16371000D01*
X25444260Y-16371000D01*
X25510442Y-16377518D01*
X25510442Y-16377518D01*
G37*
G36*
X28841000Y-18173000D02*
G01*
X27039000Y-18173000D01*
X27039000Y-16371000D01*
X28841000Y-16371000D01*
X28841000Y-18173000D01*
X28841000Y-18173000D01*
G37*
M02*
