M48
; DRILL file {KiCad (5.1.2)-2} date y19-08-21 01:30:04
; FORMAT={-:-/ absolute / inch / decimal}
; #@! TF.CreationDate,2019-08-21T01:30:04+02:00
; #@! TF.GenerationSoftware,Kicad,Pcbnew,(5.1.2)-2
; #@! TF.FileFunction,Plated,1,2,PTH
FMAT,2
INCH
T1C0.0157
T2C0.0315
T3C0.0394
%
G90
G05
T1
X1.2Y-0.7761
X1.2Y-1.2
X1.21Y-0.93
X1.23Y-0.68
X1.2802Y-0.9368
X1.45Y-0.68
X1.45Y-0.78
X1.5Y-1.0
X1.6016Y-0.78
X1.625Y-0.59
X1.625Y-1.26
X1.7Y-0.59
X1.7Y-1.26
X1.8Y-0.625
X1.8Y-0.925
X1.8Y-1.225
X2.1Y-0.925
X2.4Y-0.625
X2.4Y-0.925
X2.4Y-1.225
T2
X1.45Y-1.1
X1.45Y-1.2
T3
X1.0Y-0.68
X1.0Y-0.78
X1.0Y-0.88
X1.0Y-0.98
X1.0Y-1.08
X1.0Y-1.18
X1.1Y-0.68
X1.1Y-0.78
X1.1Y-0.88
X1.1Y-0.98
X1.1Y-1.08
X1.1Y-1.18
T0
M30
