G04 #@! TF.GenerationSoftware,KiCad,Pcbnew,(5.1.2)-2*
G04 #@! TF.CreationDate,2019-08-21T01:30:02+02:00*
G04 #@! TF.ProjectId,pmod-dice2,706d6f64-2d64-4696-9365-322e6b696361,rev?*
G04 #@! TF.SameCoordinates,Original*
G04 #@! TF.FileFunction,Copper,L2,Bot*
G04 #@! TF.FilePolarity,Positive*
%FSLAX46Y46*%
G04 Gerber Fmt 4.6, Leading zero omitted, Abs format (unit mm)*
G04 Created by KiCad (PCBNEW (5.1.2)-2) date 2019-08-21 01:30:02*
%MOMM*%
%LPD*%
G04 APERTURE LIST*
%ADD10C,0.300000*%
%ADD11C,1.400000*%
%ADD12C,1.700000*%
%ADD13O,1.700000X1.700000*%
%ADD14R,1.700000X1.700000*%
%ADD15C,0.800000*%
%ADD16C,0.250000*%
%ADD17C,0.254000*%
G04 APERTURE END LIST*
D10*
X63927714Y-26753428D02*
X63856285Y-26682000D01*
X63713428Y-26610571D01*
X63356285Y-26610571D01*
X63213428Y-26682000D01*
X63142000Y-26753428D01*
X63070571Y-26896285D01*
X63070571Y-27039142D01*
X63142000Y-27253428D01*
X63999142Y-28110571D01*
X63070571Y-28110571D01*
X61642000Y-28110571D02*
X62499142Y-28110571D01*
X62070571Y-28110571D02*
X62070571Y-26610571D01*
X62213428Y-26824857D01*
X62356285Y-26967714D01*
X62499142Y-27039142D01*
X60999142Y-27539142D02*
X59856285Y-27539142D01*
X58856285Y-26610571D02*
X58713428Y-26610571D01*
X58570571Y-26682000D01*
X58499142Y-26753428D01*
X58427714Y-26896285D01*
X58356285Y-27182000D01*
X58356285Y-27539142D01*
X58427714Y-27824857D01*
X58499142Y-27967714D01*
X58570571Y-28039142D01*
X58713428Y-28110571D01*
X58856285Y-28110571D01*
X58999142Y-28039142D01*
X59070571Y-27967714D01*
X59142000Y-27824857D01*
X59213428Y-27539142D01*
X59213428Y-27182000D01*
X59142000Y-26896285D01*
X59070571Y-26753428D01*
X58999142Y-26682000D01*
X58856285Y-26610571D01*
X57499142Y-27253428D02*
X57642000Y-27182000D01*
X57713428Y-27110571D01*
X57784857Y-26967714D01*
X57784857Y-26896285D01*
X57713428Y-26753428D01*
X57642000Y-26682000D01*
X57499142Y-26610571D01*
X57213428Y-26610571D01*
X57070571Y-26682000D01*
X56999142Y-26753428D01*
X56927714Y-26896285D01*
X56927714Y-26967714D01*
X56999142Y-27110571D01*
X57070571Y-27182000D01*
X57213428Y-27253428D01*
X57499142Y-27253428D01*
X57642000Y-27324857D01*
X57713428Y-27396285D01*
X57784857Y-27539142D01*
X57784857Y-27824857D01*
X57713428Y-27967714D01*
X57642000Y-28039142D01*
X57499142Y-28110571D01*
X57213428Y-28110571D01*
X57070571Y-28039142D01*
X56999142Y-27967714D01*
X56927714Y-27824857D01*
X56927714Y-27539142D01*
X56999142Y-27396285D01*
X57070571Y-27324857D01*
X57213428Y-27253428D01*
X56284857Y-27539142D02*
X55142000Y-27539142D01*
X54499142Y-26753428D02*
X54427714Y-26682000D01*
X54284857Y-26610571D01*
X53927714Y-26610571D01*
X53784857Y-26682000D01*
X53713428Y-26753428D01*
X53642000Y-26896285D01*
X53642000Y-27039142D01*
X53713428Y-27253428D01*
X54570571Y-28110571D01*
X53642000Y-28110571D01*
X52713428Y-26610571D02*
X52570571Y-26610571D01*
X52427714Y-26682000D01*
X52356285Y-26753428D01*
X52284857Y-26896285D01*
X52213428Y-27182000D01*
X52213428Y-27539142D01*
X52284857Y-27824857D01*
X52356285Y-27967714D01*
X52427714Y-28039142D01*
X52570571Y-28110571D01*
X52713428Y-28110571D01*
X52856285Y-28039142D01*
X52927714Y-27967714D01*
X52999142Y-27824857D01*
X53070571Y-27539142D01*
X53070571Y-27182000D01*
X52999142Y-26896285D01*
X52927714Y-26753428D01*
X52856285Y-26682000D01*
X52713428Y-26610571D01*
X50784857Y-28110571D02*
X51642000Y-28110571D01*
X51213428Y-28110571D02*
X51213428Y-26610571D01*
X51356285Y-26824857D01*
X51499142Y-26967714D01*
X51642000Y-27039142D01*
X50070571Y-28110571D02*
X49784857Y-28110571D01*
X49642000Y-28039142D01*
X49570571Y-27967714D01*
X49427714Y-27753428D01*
X49356285Y-27467714D01*
X49356285Y-26896285D01*
X49427714Y-26753428D01*
X49499142Y-26682000D01*
X49642000Y-26610571D01*
X49927714Y-26610571D01*
X50070571Y-26682000D01*
X50142000Y-26753428D01*
X50213428Y-26896285D01*
X50213428Y-27253428D01*
X50142000Y-27396285D01*
X50070571Y-27467714D01*
X49927714Y-27539142D01*
X49642000Y-27539142D01*
X49499142Y-27467714D01*
X49427714Y-27396285D01*
X49356285Y-27253428D01*
X63709142Y-18736571D02*
X63709142Y-19808000D01*
X63780571Y-20022285D01*
X63923428Y-20165142D01*
X64137714Y-20236571D01*
X64280571Y-20236571D01*
X62780571Y-20236571D02*
X62923428Y-20165142D01*
X62994857Y-20093714D01*
X63066285Y-19950857D01*
X63066285Y-19522285D01*
X62994857Y-19379428D01*
X62923428Y-19308000D01*
X62780571Y-19236571D01*
X62566285Y-19236571D01*
X62423428Y-19308000D01*
X62352000Y-19379428D01*
X62280571Y-19522285D01*
X62280571Y-19950857D01*
X62352000Y-20093714D01*
X62423428Y-20165142D01*
X62566285Y-20236571D01*
X62780571Y-20236571D01*
X61637714Y-20236571D02*
X61637714Y-18736571D01*
X60994857Y-20236571D02*
X60994857Y-19450857D01*
X61066285Y-19308000D01*
X61209142Y-19236571D01*
X61423428Y-19236571D01*
X61566285Y-19308000D01*
X61637714Y-19379428D01*
X60280571Y-19236571D02*
X60280571Y-20236571D01*
X60280571Y-19379428D02*
X60209142Y-19308000D01*
X60066285Y-19236571D01*
X59852000Y-19236571D01*
X59709142Y-19308000D01*
X59637714Y-19450857D01*
X59637714Y-20236571D01*
X57852000Y-19808000D02*
X57137714Y-19808000D01*
X57994857Y-20236571D02*
X57494857Y-18736571D01*
X56994857Y-20236571D01*
X56494857Y-20236571D02*
X56494857Y-19236571D01*
X56494857Y-19522285D02*
X56423428Y-19379428D01*
X56352000Y-19308000D01*
X56209142Y-19236571D01*
X56066285Y-19236571D01*
X55566285Y-20236571D02*
X55566285Y-19236571D01*
X55566285Y-18736571D02*
X55637714Y-18808000D01*
X55566285Y-18879428D01*
X55494857Y-18808000D01*
X55566285Y-18736571D01*
X55566285Y-18879428D01*
X54637714Y-20236571D02*
X54780571Y-20165142D01*
X54852000Y-20022285D01*
X54852000Y-18736571D01*
X53423428Y-20236571D02*
X53423428Y-18736571D01*
X53423428Y-20165142D02*
X53566285Y-20236571D01*
X53852000Y-20236571D01*
X53994857Y-20165142D01*
X54066285Y-20093714D01*
X54137714Y-19950857D01*
X54137714Y-19522285D01*
X54066285Y-19379428D01*
X53994857Y-19308000D01*
X53852000Y-19236571D01*
X53566285Y-19236571D01*
X53423428Y-19308000D01*
X50852000Y-20236571D02*
X51566285Y-20236571D01*
X51566285Y-18736571D01*
X50137714Y-20236571D02*
X50280571Y-20165142D01*
X50352000Y-20093714D01*
X50423428Y-19950857D01*
X50423428Y-19522285D01*
X50352000Y-19379428D01*
X50280571Y-19308000D01*
X50137714Y-19236571D01*
X49923428Y-19236571D01*
X49780571Y-19308000D01*
X49709142Y-19379428D01*
X49637714Y-19522285D01*
X49637714Y-19950857D01*
X49709142Y-20093714D01*
X49780571Y-20165142D01*
X49923428Y-20236571D01*
X50137714Y-20236571D01*
X48780571Y-20236571D02*
X48923428Y-20165142D01*
X48994857Y-20022285D01*
X48994857Y-18736571D01*
X47994857Y-20236571D02*
X48137714Y-20165142D01*
X48209142Y-20022285D01*
X48209142Y-18736571D01*
X46780571Y-20236571D02*
X46780571Y-19450857D01*
X46852000Y-19308000D01*
X46994857Y-19236571D01*
X47280571Y-19236571D01*
X47423428Y-19308000D01*
X46780571Y-20165142D02*
X46923428Y-20236571D01*
X47280571Y-20236571D01*
X47423428Y-20165142D01*
X47494857Y-20022285D01*
X47494857Y-19879428D01*
X47423428Y-19736571D01*
X47280571Y-19665142D01*
X46923428Y-19665142D01*
X46780571Y-19593714D01*
X46066285Y-19236571D02*
X46066285Y-20236571D01*
X46066285Y-19379428D02*
X45994857Y-19308000D01*
X45852000Y-19236571D01*
X45637714Y-19236571D01*
X45494857Y-19308000D01*
X45423428Y-19450857D01*
X45423428Y-20236571D01*
X44066285Y-20236571D02*
X44066285Y-18736571D01*
X44066285Y-20165142D02*
X44209142Y-20236571D01*
X44494857Y-20236571D01*
X44637714Y-20165142D01*
X44709142Y-20093714D01*
X44780571Y-19950857D01*
X44780571Y-19522285D01*
X44709142Y-19379428D01*
X44637714Y-19308000D01*
X44494857Y-19236571D01*
X44209142Y-19236571D01*
X44066285Y-19308000D01*
D11*
X36830000Y-27940000D03*
X36830000Y-30480000D03*
D12*
X27940000Y-29972000D03*
D13*
X25400000Y-29972000D03*
X27940000Y-27432000D03*
X25400000Y-27432000D03*
X27940000Y-24892000D03*
X25400000Y-24892000D03*
X27940000Y-22352000D03*
X25400000Y-22352000D03*
X27940000Y-19812000D03*
X25400000Y-19812000D03*
D14*
X27940000Y-17272000D03*
D13*
X25400000Y-17272000D03*
D15*
X43180000Y-14986000D03*
X41275000Y-14986000D03*
X41275000Y-32004000D03*
X43180000Y-32004000D03*
X30480000Y-30480000D03*
X31242000Y-17272000D03*
X36830000Y-19812000D03*
X60960000Y-23495000D03*
X45720000Y-15875000D03*
X45720000Y-23495000D03*
X30480000Y-19712600D03*
X45720000Y-31115000D03*
X30734000Y-23622000D03*
X32518200Y-23793500D03*
X53340000Y-23495000D03*
X60960000Y-15875000D03*
X36830000Y-17272000D03*
X60960000Y-31115000D03*
X38100000Y-25400000D03*
X40681500Y-19812000D03*
D16*
X36830000Y-30480000D02*
X35840051Y-30480000D01*
X35840051Y-30480000D02*
X30480000Y-30480000D01*
X26602081Y-27432000D02*
X27940000Y-27432000D01*
X25400000Y-27432000D02*
X26602081Y-27432000D01*
X32639000Y-15875000D02*
X31242000Y-17272000D01*
X45720000Y-15875000D02*
X32639000Y-15875000D01*
X45720000Y-23495000D02*
X38735000Y-23495000D01*
X38735000Y-23495000D02*
X34290000Y-23495000D01*
X33863499Y-23068499D02*
X31323499Y-23068499D01*
X34290000Y-23495000D02*
X33863499Y-23068499D01*
X31323499Y-23068499D02*
X30480000Y-22225000D01*
X30480000Y-22225000D02*
X30480000Y-19712600D01*
X31133999Y-24021999D02*
X30734000Y-23622000D01*
X31784310Y-24672310D02*
X31133999Y-24021999D01*
X35467310Y-24672310D02*
X31784310Y-24672310D01*
X41910000Y-31115000D02*
X35467310Y-24672310D01*
X45720000Y-31115000D02*
X41910000Y-31115000D01*
X53340000Y-23495000D02*
X52612700Y-24222300D01*
X52612700Y-24222300D02*
X32947000Y-24222300D01*
X32947000Y-24222300D02*
X32518200Y-23793500D01*
X60960000Y-15875000D02*
X49657000Y-15875000D01*
X48931999Y-16600001D02*
X37501999Y-16600001D01*
X49657000Y-15875000D02*
X48931999Y-16600001D01*
X37501999Y-16600001D02*
X36830000Y-17272000D01*
X60234999Y-22769999D02*
X60960000Y-23495000D01*
X38009999Y-22769999D02*
X60234999Y-22769999D01*
X36830000Y-19812000D02*
X36830000Y-21590000D01*
X36830000Y-21590000D02*
X38009999Y-22769999D01*
X60960000Y-31115000D02*
X49911000Y-31115000D01*
X49185999Y-30389999D02*
X42000001Y-30389999D01*
X49911000Y-31115000D02*
X49185999Y-30389999D01*
X42000001Y-30389999D02*
X38100000Y-26489998D01*
X38100000Y-26489998D02*
X38100000Y-25400000D01*
X26602081Y-29972000D02*
X27940000Y-29972000D01*
X25400000Y-29972000D02*
X26602081Y-29972000D01*
X26575300Y-19812000D02*
X26575300Y-19444600D01*
X26575300Y-19444600D02*
X27383200Y-18636700D01*
X27383200Y-18636700D02*
X39506200Y-18636700D01*
X39506200Y-18636700D02*
X40681500Y-19812000D01*
X25400000Y-19812000D02*
X26575300Y-19812000D01*
D17*
G36*
X65845189Y-14749376D02*
G01*
X66008850Y-14799022D01*
X66159672Y-14879638D01*
X66291870Y-14988130D01*
X66400362Y-15120328D01*
X66480978Y-15271150D01*
X66530624Y-15434811D01*
X66548000Y-15611234D01*
X66548000Y-31378766D01*
X66530624Y-31555189D01*
X66480978Y-31718850D01*
X66400362Y-31869672D01*
X66291870Y-32001870D01*
X66159672Y-32110362D01*
X66008850Y-32190978D01*
X65845189Y-32240624D01*
X65668766Y-32258000D01*
X23231234Y-32258000D01*
X23054811Y-32240624D01*
X22891150Y-32190978D01*
X22740328Y-32110362D01*
X22608130Y-32001870D01*
X22499638Y-31869672D01*
X22419022Y-31718850D01*
X22369376Y-31555189D01*
X22352000Y-31378766D01*
X22352000Y-29972000D01*
X24163044Y-29972000D01*
X24186812Y-30213318D01*
X24257202Y-30445363D01*
X24371509Y-30659216D01*
X24525340Y-30846660D01*
X24712784Y-31000491D01*
X24926637Y-31114798D01*
X25158682Y-31185188D01*
X25339528Y-31203000D01*
X25460472Y-31203000D01*
X25641318Y-31185188D01*
X25873363Y-31114798D01*
X26087216Y-31000491D01*
X26274660Y-30846660D01*
X26428491Y-30659216D01*
X26525353Y-30478000D01*
X26817168Y-30478000D01*
X26849102Y-30555097D01*
X26983820Y-30756717D01*
X27155283Y-30928180D01*
X27356903Y-31062898D01*
X27580931Y-31155693D01*
X27818757Y-31203000D01*
X28061243Y-31203000D01*
X28299069Y-31155693D01*
X28523097Y-31062898D01*
X28724717Y-30928180D01*
X28896180Y-30756717D01*
X29030898Y-30555097D01*
X29093866Y-30403078D01*
X29699000Y-30403078D01*
X29699000Y-30556922D01*
X29729013Y-30707809D01*
X29787887Y-30849942D01*
X29873358Y-30977859D01*
X29982141Y-31086642D01*
X30110058Y-31172113D01*
X30252191Y-31230987D01*
X30403078Y-31261000D01*
X30556922Y-31261000D01*
X30707809Y-31230987D01*
X30849942Y-31172113D01*
X30977859Y-31086642D01*
X31078501Y-30986000D01*
X35869527Y-30986000D01*
X35872031Y-30992045D01*
X35990333Y-31169097D01*
X36140903Y-31319667D01*
X36317955Y-31437969D01*
X36514684Y-31519457D01*
X36723531Y-31561000D01*
X36936469Y-31561000D01*
X37145316Y-31519457D01*
X37342045Y-31437969D01*
X37519097Y-31319667D01*
X37669667Y-31169097D01*
X37787969Y-30992045D01*
X37869457Y-30795316D01*
X37911000Y-30586469D01*
X37911000Y-30373531D01*
X37869457Y-30164684D01*
X37787969Y-29967955D01*
X37669667Y-29790903D01*
X37519097Y-29640333D01*
X37342045Y-29522031D01*
X37145316Y-29440543D01*
X36936469Y-29399000D01*
X36723531Y-29399000D01*
X36514684Y-29440543D01*
X36317955Y-29522031D01*
X36140903Y-29640333D01*
X35990333Y-29790903D01*
X35872031Y-29967955D01*
X35869527Y-29974000D01*
X31078501Y-29974000D01*
X30977859Y-29873358D01*
X30849942Y-29787887D01*
X30707809Y-29729013D01*
X30556922Y-29699000D01*
X30403078Y-29699000D01*
X30252191Y-29729013D01*
X30110058Y-29787887D01*
X29982141Y-29873358D01*
X29873358Y-29982141D01*
X29787887Y-30110058D01*
X29729013Y-30252191D01*
X29699000Y-30403078D01*
X29093866Y-30403078D01*
X29123693Y-30331069D01*
X29171000Y-30093243D01*
X29171000Y-29850757D01*
X29123693Y-29612931D01*
X29030898Y-29388903D01*
X28896180Y-29187283D01*
X28724717Y-29015820D01*
X28523097Y-28881102D01*
X28299069Y-28788307D01*
X28061243Y-28741000D01*
X27818757Y-28741000D01*
X27580931Y-28788307D01*
X27356903Y-28881102D01*
X27155283Y-29015820D01*
X26983820Y-29187283D01*
X26849102Y-29388903D01*
X26817168Y-29466000D01*
X26525353Y-29466000D01*
X26428491Y-29284784D01*
X26274660Y-29097340D01*
X26087216Y-28943509D01*
X25873363Y-28829202D01*
X25641318Y-28758812D01*
X25460472Y-28741000D01*
X25339528Y-28741000D01*
X25158682Y-28758812D01*
X24926637Y-28829202D01*
X24712784Y-28943509D01*
X24525340Y-29097340D01*
X24371509Y-29284784D01*
X24257202Y-29498637D01*
X24186812Y-29730682D01*
X24163044Y-29972000D01*
X22352000Y-29972000D01*
X22352000Y-24892000D01*
X24163044Y-24892000D01*
X24186812Y-25133318D01*
X24257202Y-25365363D01*
X24371509Y-25579216D01*
X24525340Y-25766660D01*
X24712784Y-25920491D01*
X24926637Y-26034798D01*
X25158682Y-26105188D01*
X25339528Y-26123000D01*
X25460472Y-26123000D01*
X25641318Y-26105188D01*
X25873363Y-26034798D01*
X26087216Y-25920491D01*
X26274660Y-25766660D01*
X26428491Y-25579216D01*
X26542798Y-25365363D01*
X26613188Y-25133318D01*
X26636956Y-24892000D01*
X26703044Y-24892000D01*
X26726812Y-25133318D01*
X26797202Y-25365363D01*
X26911509Y-25579216D01*
X27065340Y-25766660D01*
X27252784Y-25920491D01*
X27466637Y-26034798D01*
X27698682Y-26105188D01*
X27879528Y-26123000D01*
X28000472Y-26123000D01*
X28181318Y-26105188D01*
X28413363Y-26034798D01*
X28627216Y-25920491D01*
X28814660Y-25766660D01*
X28968491Y-25579216D01*
X29082798Y-25365363D01*
X29153188Y-25133318D01*
X29176956Y-24892000D01*
X29153188Y-24650682D01*
X29082798Y-24418637D01*
X28968491Y-24204784D01*
X28814660Y-24017340D01*
X28627216Y-23863509D01*
X28413363Y-23749202D01*
X28181318Y-23678812D01*
X28000472Y-23661000D01*
X27879528Y-23661000D01*
X27698682Y-23678812D01*
X27466637Y-23749202D01*
X27252784Y-23863509D01*
X27065340Y-24017340D01*
X26911509Y-24204784D01*
X26797202Y-24418637D01*
X26726812Y-24650682D01*
X26703044Y-24892000D01*
X26636956Y-24892000D01*
X26613188Y-24650682D01*
X26542798Y-24418637D01*
X26428491Y-24204784D01*
X26274660Y-24017340D01*
X26087216Y-23863509D01*
X25873363Y-23749202D01*
X25641318Y-23678812D01*
X25460472Y-23661000D01*
X25339528Y-23661000D01*
X25158682Y-23678812D01*
X24926637Y-23749202D01*
X24712784Y-23863509D01*
X24525340Y-24017340D01*
X24371509Y-24204784D01*
X24257202Y-24418637D01*
X24186812Y-24650682D01*
X24163044Y-24892000D01*
X22352000Y-24892000D01*
X22352000Y-22352000D01*
X24163044Y-22352000D01*
X24186812Y-22593318D01*
X24257202Y-22825363D01*
X24371509Y-23039216D01*
X24525340Y-23226660D01*
X24712784Y-23380491D01*
X24926637Y-23494798D01*
X25158682Y-23565188D01*
X25339528Y-23583000D01*
X25460472Y-23583000D01*
X25641318Y-23565188D01*
X25873363Y-23494798D01*
X26087216Y-23380491D01*
X26274660Y-23226660D01*
X26428491Y-23039216D01*
X26542798Y-22825363D01*
X26613188Y-22593318D01*
X26636956Y-22352000D01*
X26703044Y-22352000D01*
X26726812Y-22593318D01*
X26797202Y-22825363D01*
X26911509Y-23039216D01*
X27065340Y-23226660D01*
X27252784Y-23380491D01*
X27466637Y-23494798D01*
X27698682Y-23565188D01*
X27879528Y-23583000D01*
X28000472Y-23583000D01*
X28181318Y-23565188D01*
X28413363Y-23494798D01*
X28627216Y-23380491D01*
X28814660Y-23226660D01*
X28968491Y-23039216D01*
X29082798Y-22825363D01*
X29153188Y-22593318D01*
X29176956Y-22352000D01*
X29153188Y-22110682D01*
X29082798Y-21878637D01*
X28968491Y-21664784D01*
X28814660Y-21477340D01*
X28627216Y-21323509D01*
X28413363Y-21209202D01*
X28181318Y-21138812D01*
X28000472Y-21121000D01*
X27879528Y-21121000D01*
X27698682Y-21138812D01*
X27466637Y-21209202D01*
X27252784Y-21323509D01*
X27065340Y-21477340D01*
X26911509Y-21664784D01*
X26797202Y-21878637D01*
X26726812Y-22110682D01*
X26703044Y-22352000D01*
X26636956Y-22352000D01*
X26613188Y-22110682D01*
X26542798Y-21878637D01*
X26428491Y-21664784D01*
X26274660Y-21477340D01*
X26087216Y-21323509D01*
X25873363Y-21209202D01*
X25641318Y-21138812D01*
X25460472Y-21121000D01*
X25339528Y-21121000D01*
X25158682Y-21138812D01*
X24926637Y-21209202D01*
X24712784Y-21323509D01*
X24525340Y-21477340D01*
X24371509Y-21664784D01*
X24257202Y-21878637D01*
X24186812Y-22110682D01*
X24163044Y-22352000D01*
X22352000Y-22352000D01*
X22352000Y-19812000D01*
X24163044Y-19812000D01*
X24186812Y-20053318D01*
X24257202Y-20285363D01*
X24371509Y-20499216D01*
X24525340Y-20686660D01*
X24712784Y-20840491D01*
X24926637Y-20954798D01*
X25158682Y-21025188D01*
X25339528Y-21043000D01*
X25460472Y-21043000D01*
X25641318Y-21025188D01*
X25873363Y-20954798D01*
X26087216Y-20840491D01*
X26274660Y-20686660D01*
X26428491Y-20499216D01*
X26525353Y-20318000D01*
X26550446Y-20318000D01*
X26575300Y-20320448D01*
X26600154Y-20318000D01*
X26674493Y-20310678D01*
X26769875Y-20281745D01*
X26792445Y-20269681D01*
X26797202Y-20285363D01*
X26911509Y-20499216D01*
X27065340Y-20686660D01*
X27252784Y-20840491D01*
X27466637Y-20954798D01*
X27698682Y-21025188D01*
X27879528Y-21043000D01*
X28000472Y-21043000D01*
X28181318Y-21025188D01*
X28413363Y-20954798D01*
X28627216Y-20840491D01*
X28814660Y-20686660D01*
X28968491Y-20499216D01*
X29082798Y-20285363D01*
X29153188Y-20053318D01*
X29176956Y-19812000D01*
X29153188Y-19570682D01*
X29082798Y-19338637D01*
X28978067Y-19142700D01*
X29945399Y-19142700D01*
X29873358Y-19214741D01*
X29787887Y-19342658D01*
X29729013Y-19484791D01*
X29699000Y-19635678D01*
X29699000Y-19789522D01*
X29729013Y-19940409D01*
X29787887Y-20082542D01*
X29873358Y-20210459D01*
X29974001Y-20311102D01*
X29974000Y-22200154D01*
X29971553Y-22225000D01*
X29974000Y-22249846D01*
X29974000Y-22249853D01*
X29981322Y-22324192D01*
X30010255Y-22419574D01*
X30057241Y-22507479D01*
X30120473Y-22584527D01*
X30139785Y-22600376D01*
X30438472Y-22899063D01*
X30364058Y-22929887D01*
X30236141Y-23015358D01*
X30127358Y-23124141D01*
X30041887Y-23252058D01*
X29983013Y-23394191D01*
X29953000Y-23545078D01*
X29953000Y-23698922D01*
X29983013Y-23849809D01*
X30041887Y-23991942D01*
X30127358Y-24119859D01*
X30236141Y-24228642D01*
X30364058Y-24314113D01*
X30506191Y-24372987D01*
X30657078Y-24403000D01*
X30799409Y-24403000D01*
X31408938Y-25012530D01*
X31424783Y-25031837D01*
X31501831Y-25095069D01*
X31589735Y-25142055D01*
X31685117Y-25170988D01*
X31784310Y-25180758D01*
X31809164Y-25178310D01*
X35257719Y-25178310D01*
X41534628Y-31455220D01*
X41550473Y-31474527D01*
X41627521Y-31537759D01*
X41715425Y-31584745D01*
X41810807Y-31613678D01*
X41910000Y-31623448D01*
X41934854Y-31621000D01*
X42202406Y-31621000D01*
X42273862Y-31679642D01*
X42294563Y-31693474D01*
X42467450Y-31785884D01*
X42490451Y-31795412D01*
X42678044Y-31852317D01*
X42702462Y-31857173D01*
X42897552Y-31876388D01*
X42910000Y-31877000D01*
X45547558Y-31877000D01*
X45643078Y-31896000D01*
X45796922Y-31896000D01*
X45892442Y-31877000D01*
X60787558Y-31877000D01*
X60883078Y-31896000D01*
X61036922Y-31896000D01*
X61132442Y-31877000D01*
X65040000Y-31877000D01*
X65052448Y-31876388D01*
X65247538Y-31857173D01*
X65271956Y-31852317D01*
X65459549Y-31795412D01*
X65482550Y-31785884D01*
X65655437Y-31693474D01*
X65676138Y-31679642D01*
X65827675Y-31555279D01*
X65845279Y-31537675D01*
X65969642Y-31386138D01*
X65983474Y-31365437D01*
X66075884Y-31192550D01*
X66085412Y-31169549D01*
X66142317Y-30981956D01*
X66147173Y-30957538D01*
X66166388Y-30762448D01*
X66167000Y-30750000D01*
X66167000Y-16240000D01*
X66166388Y-16227552D01*
X66147173Y-16032462D01*
X66142317Y-16008044D01*
X66085412Y-15820451D01*
X66075884Y-15797450D01*
X65983474Y-15624563D01*
X65969642Y-15603862D01*
X65845279Y-15452325D01*
X65827675Y-15434721D01*
X65676138Y-15310358D01*
X65655437Y-15296526D01*
X65482550Y-15204116D01*
X65459549Y-15194588D01*
X65271956Y-15137683D01*
X65247538Y-15132827D01*
X65052448Y-15113612D01*
X65040000Y-15113000D01*
X61132442Y-15113000D01*
X61036922Y-15094000D01*
X60883078Y-15094000D01*
X60787558Y-15113000D01*
X45892442Y-15113000D01*
X45796922Y-15094000D01*
X45643078Y-15094000D01*
X45547558Y-15113000D01*
X42910000Y-15113000D01*
X42897552Y-15113612D01*
X42702462Y-15132827D01*
X42678044Y-15137683D01*
X42490451Y-15194588D01*
X42467450Y-15204116D01*
X42294563Y-15296526D01*
X42273862Y-15310358D01*
X42202406Y-15369000D01*
X32663845Y-15369000D01*
X32638999Y-15366553D01*
X32614153Y-15369000D01*
X32614146Y-15369000D01*
X32549694Y-15375348D01*
X32539806Y-15376322D01*
X32523841Y-15381165D01*
X32444425Y-15405255D01*
X32356521Y-15452241D01*
X32279473Y-15515473D01*
X32263628Y-15534780D01*
X31307409Y-16491000D01*
X31165078Y-16491000D01*
X31014191Y-16521013D01*
X30872058Y-16579887D01*
X30744141Y-16665358D01*
X30635358Y-16774141D01*
X30549887Y-16902058D01*
X30491013Y-17044191D01*
X30461000Y-17195078D01*
X30461000Y-17348922D01*
X30491013Y-17499809D01*
X30549887Y-17641942D01*
X30635358Y-17769859D01*
X30744141Y-17878642D01*
X30872058Y-17964113D01*
X30988000Y-18012138D01*
X30988000Y-18130700D01*
X29171986Y-18130700D01*
X29172843Y-18122000D01*
X29172843Y-16422000D01*
X29165487Y-16347311D01*
X29143701Y-16275492D01*
X29108322Y-16209304D01*
X29060711Y-16151289D01*
X29002696Y-16103678D01*
X28936508Y-16068299D01*
X28864689Y-16046513D01*
X28790000Y-16039157D01*
X27090000Y-16039157D01*
X27015311Y-16046513D01*
X26943492Y-16068299D01*
X26877304Y-16103678D01*
X26819289Y-16151289D01*
X26771678Y-16209304D01*
X26736299Y-16275492D01*
X26714513Y-16347311D01*
X26707157Y-16422000D01*
X26707157Y-18122000D01*
X26714513Y-18196689D01*
X26736299Y-18268508D01*
X26771678Y-18334696D01*
X26819289Y-18392711D01*
X26869989Y-18434319D01*
X26316269Y-18988040D01*
X26274660Y-18937340D01*
X26087216Y-18783509D01*
X25873363Y-18669202D01*
X25641318Y-18598812D01*
X25460472Y-18581000D01*
X25339528Y-18581000D01*
X25158682Y-18598812D01*
X24926637Y-18669202D01*
X24712784Y-18783509D01*
X24525340Y-18937340D01*
X24371509Y-19124784D01*
X24257202Y-19338637D01*
X24186812Y-19570682D01*
X24163044Y-19812000D01*
X22352000Y-19812000D01*
X22352000Y-17272000D01*
X24163044Y-17272000D01*
X24186812Y-17513318D01*
X24257202Y-17745363D01*
X24371509Y-17959216D01*
X24525340Y-18146660D01*
X24712784Y-18300491D01*
X24926637Y-18414798D01*
X25158682Y-18485188D01*
X25339528Y-18503000D01*
X25460472Y-18503000D01*
X25641318Y-18485188D01*
X25873363Y-18414798D01*
X26087216Y-18300491D01*
X26274660Y-18146660D01*
X26428491Y-17959216D01*
X26542798Y-17745363D01*
X26613188Y-17513318D01*
X26636956Y-17272000D01*
X26613188Y-17030682D01*
X26542798Y-16798637D01*
X26428491Y-16584784D01*
X26274660Y-16397340D01*
X26087216Y-16243509D01*
X25873363Y-16129202D01*
X25641318Y-16058812D01*
X25460472Y-16041000D01*
X25339528Y-16041000D01*
X25158682Y-16058812D01*
X24926637Y-16129202D01*
X24712784Y-16243509D01*
X24525340Y-16397340D01*
X24371509Y-16584784D01*
X24257202Y-16798637D01*
X24186812Y-17030682D01*
X24163044Y-17272000D01*
X22352000Y-17272000D01*
X22352000Y-15611234D01*
X22369376Y-15434811D01*
X22419022Y-15271150D01*
X22499638Y-15120328D01*
X22608130Y-14988130D01*
X22740328Y-14879638D01*
X22891150Y-14799022D01*
X23054811Y-14749376D01*
X23231234Y-14732000D01*
X65668766Y-14732000D01*
X65845189Y-14749376D01*
X65845189Y-14749376D01*
G37*
X65845189Y-14749376D02*
X66008850Y-14799022D01*
X66159672Y-14879638D01*
X66291870Y-14988130D01*
X66400362Y-15120328D01*
X66480978Y-15271150D01*
X66530624Y-15434811D01*
X66548000Y-15611234D01*
X66548000Y-31378766D01*
X66530624Y-31555189D01*
X66480978Y-31718850D01*
X66400362Y-31869672D01*
X66291870Y-32001870D01*
X66159672Y-32110362D01*
X66008850Y-32190978D01*
X65845189Y-32240624D01*
X65668766Y-32258000D01*
X23231234Y-32258000D01*
X23054811Y-32240624D01*
X22891150Y-32190978D01*
X22740328Y-32110362D01*
X22608130Y-32001870D01*
X22499638Y-31869672D01*
X22419022Y-31718850D01*
X22369376Y-31555189D01*
X22352000Y-31378766D01*
X22352000Y-29972000D01*
X24163044Y-29972000D01*
X24186812Y-30213318D01*
X24257202Y-30445363D01*
X24371509Y-30659216D01*
X24525340Y-30846660D01*
X24712784Y-31000491D01*
X24926637Y-31114798D01*
X25158682Y-31185188D01*
X25339528Y-31203000D01*
X25460472Y-31203000D01*
X25641318Y-31185188D01*
X25873363Y-31114798D01*
X26087216Y-31000491D01*
X26274660Y-30846660D01*
X26428491Y-30659216D01*
X26525353Y-30478000D01*
X26817168Y-30478000D01*
X26849102Y-30555097D01*
X26983820Y-30756717D01*
X27155283Y-30928180D01*
X27356903Y-31062898D01*
X27580931Y-31155693D01*
X27818757Y-31203000D01*
X28061243Y-31203000D01*
X28299069Y-31155693D01*
X28523097Y-31062898D01*
X28724717Y-30928180D01*
X28896180Y-30756717D01*
X29030898Y-30555097D01*
X29093866Y-30403078D01*
X29699000Y-30403078D01*
X29699000Y-30556922D01*
X29729013Y-30707809D01*
X29787887Y-30849942D01*
X29873358Y-30977859D01*
X29982141Y-31086642D01*
X30110058Y-31172113D01*
X30252191Y-31230987D01*
X30403078Y-31261000D01*
X30556922Y-31261000D01*
X30707809Y-31230987D01*
X30849942Y-31172113D01*
X30977859Y-31086642D01*
X31078501Y-30986000D01*
X35869527Y-30986000D01*
X35872031Y-30992045D01*
X35990333Y-31169097D01*
X36140903Y-31319667D01*
X36317955Y-31437969D01*
X36514684Y-31519457D01*
X36723531Y-31561000D01*
X36936469Y-31561000D01*
X37145316Y-31519457D01*
X37342045Y-31437969D01*
X37519097Y-31319667D01*
X37669667Y-31169097D01*
X37787969Y-30992045D01*
X37869457Y-30795316D01*
X37911000Y-30586469D01*
X37911000Y-30373531D01*
X37869457Y-30164684D01*
X37787969Y-29967955D01*
X37669667Y-29790903D01*
X37519097Y-29640333D01*
X37342045Y-29522031D01*
X37145316Y-29440543D01*
X36936469Y-29399000D01*
X36723531Y-29399000D01*
X36514684Y-29440543D01*
X36317955Y-29522031D01*
X36140903Y-29640333D01*
X35990333Y-29790903D01*
X35872031Y-29967955D01*
X35869527Y-29974000D01*
X31078501Y-29974000D01*
X30977859Y-29873358D01*
X30849942Y-29787887D01*
X30707809Y-29729013D01*
X30556922Y-29699000D01*
X30403078Y-29699000D01*
X30252191Y-29729013D01*
X30110058Y-29787887D01*
X29982141Y-29873358D01*
X29873358Y-29982141D01*
X29787887Y-30110058D01*
X29729013Y-30252191D01*
X29699000Y-30403078D01*
X29093866Y-30403078D01*
X29123693Y-30331069D01*
X29171000Y-30093243D01*
X29171000Y-29850757D01*
X29123693Y-29612931D01*
X29030898Y-29388903D01*
X28896180Y-29187283D01*
X28724717Y-29015820D01*
X28523097Y-28881102D01*
X28299069Y-28788307D01*
X28061243Y-28741000D01*
X27818757Y-28741000D01*
X27580931Y-28788307D01*
X27356903Y-28881102D01*
X27155283Y-29015820D01*
X26983820Y-29187283D01*
X26849102Y-29388903D01*
X26817168Y-29466000D01*
X26525353Y-29466000D01*
X26428491Y-29284784D01*
X26274660Y-29097340D01*
X26087216Y-28943509D01*
X25873363Y-28829202D01*
X25641318Y-28758812D01*
X25460472Y-28741000D01*
X25339528Y-28741000D01*
X25158682Y-28758812D01*
X24926637Y-28829202D01*
X24712784Y-28943509D01*
X24525340Y-29097340D01*
X24371509Y-29284784D01*
X24257202Y-29498637D01*
X24186812Y-29730682D01*
X24163044Y-29972000D01*
X22352000Y-29972000D01*
X22352000Y-24892000D01*
X24163044Y-24892000D01*
X24186812Y-25133318D01*
X24257202Y-25365363D01*
X24371509Y-25579216D01*
X24525340Y-25766660D01*
X24712784Y-25920491D01*
X24926637Y-26034798D01*
X25158682Y-26105188D01*
X25339528Y-26123000D01*
X25460472Y-26123000D01*
X25641318Y-26105188D01*
X25873363Y-26034798D01*
X26087216Y-25920491D01*
X26274660Y-25766660D01*
X26428491Y-25579216D01*
X26542798Y-25365363D01*
X26613188Y-25133318D01*
X26636956Y-24892000D01*
X26703044Y-24892000D01*
X26726812Y-25133318D01*
X26797202Y-25365363D01*
X26911509Y-25579216D01*
X27065340Y-25766660D01*
X27252784Y-25920491D01*
X27466637Y-26034798D01*
X27698682Y-26105188D01*
X27879528Y-26123000D01*
X28000472Y-26123000D01*
X28181318Y-26105188D01*
X28413363Y-26034798D01*
X28627216Y-25920491D01*
X28814660Y-25766660D01*
X28968491Y-25579216D01*
X29082798Y-25365363D01*
X29153188Y-25133318D01*
X29176956Y-24892000D01*
X29153188Y-24650682D01*
X29082798Y-24418637D01*
X28968491Y-24204784D01*
X28814660Y-24017340D01*
X28627216Y-23863509D01*
X28413363Y-23749202D01*
X28181318Y-23678812D01*
X28000472Y-23661000D01*
X27879528Y-23661000D01*
X27698682Y-23678812D01*
X27466637Y-23749202D01*
X27252784Y-23863509D01*
X27065340Y-24017340D01*
X26911509Y-24204784D01*
X26797202Y-24418637D01*
X26726812Y-24650682D01*
X26703044Y-24892000D01*
X26636956Y-24892000D01*
X26613188Y-24650682D01*
X26542798Y-24418637D01*
X26428491Y-24204784D01*
X26274660Y-24017340D01*
X26087216Y-23863509D01*
X25873363Y-23749202D01*
X25641318Y-23678812D01*
X25460472Y-23661000D01*
X25339528Y-23661000D01*
X25158682Y-23678812D01*
X24926637Y-23749202D01*
X24712784Y-23863509D01*
X24525340Y-24017340D01*
X24371509Y-24204784D01*
X24257202Y-24418637D01*
X24186812Y-24650682D01*
X24163044Y-24892000D01*
X22352000Y-24892000D01*
X22352000Y-22352000D01*
X24163044Y-22352000D01*
X24186812Y-22593318D01*
X24257202Y-22825363D01*
X24371509Y-23039216D01*
X24525340Y-23226660D01*
X24712784Y-23380491D01*
X24926637Y-23494798D01*
X25158682Y-23565188D01*
X25339528Y-23583000D01*
X25460472Y-23583000D01*
X25641318Y-23565188D01*
X25873363Y-23494798D01*
X26087216Y-23380491D01*
X26274660Y-23226660D01*
X26428491Y-23039216D01*
X26542798Y-22825363D01*
X26613188Y-22593318D01*
X26636956Y-22352000D01*
X26703044Y-22352000D01*
X26726812Y-22593318D01*
X26797202Y-22825363D01*
X26911509Y-23039216D01*
X27065340Y-23226660D01*
X27252784Y-23380491D01*
X27466637Y-23494798D01*
X27698682Y-23565188D01*
X27879528Y-23583000D01*
X28000472Y-23583000D01*
X28181318Y-23565188D01*
X28413363Y-23494798D01*
X28627216Y-23380491D01*
X28814660Y-23226660D01*
X28968491Y-23039216D01*
X29082798Y-22825363D01*
X29153188Y-22593318D01*
X29176956Y-22352000D01*
X29153188Y-22110682D01*
X29082798Y-21878637D01*
X28968491Y-21664784D01*
X28814660Y-21477340D01*
X28627216Y-21323509D01*
X28413363Y-21209202D01*
X28181318Y-21138812D01*
X28000472Y-21121000D01*
X27879528Y-21121000D01*
X27698682Y-21138812D01*
X27466637Y-21209202D01*
X27252784Y-21323509D01*
X27065340Y-21477340D01*
X26911509Y-21664784D01*
X26797202Y-21878637D01*
X26726812Y-22110682D01*
X26703044Y-22352000D01*
X26636956Y-22352000D01*
X26613188Y-22110682D01*
X26542798Y-21878637D01*
X26428491Y-21664784D01*
X26274660Y-21477340D01*
X26087216Y-21323509D01*
X25873363Y-21209202D01*
X25641318Y-21138812D01*
X25460472Y-21121000D01*
X25339528Y-21121000D01*
X25158682Y-21138812D01*
X24926637Y-21209202D01*
X24712784Y-21323509D01*
X24525340Y-21477340D01*
X24371509Y-21664784D01*
X24257202Y-21878637D01*
X24186812Y-22110682D01*
X24163044Y-22352000D01*
X22352000Y-22352000D01*
X22352000Y-19812000D01*
X24163044Y-19812000D01*
X24186812Y-20053318D01*
X24257202Y-20285363D01*
X24371509Y-20499216D01*
X24525340Y-20686660D01*
X24712784Y-20840491D01*
X24926637Y-20954798D01*
X25158682Y-21025188D01*
X25339528Y-21043000D01*
X25460472Y-21043000D01*
X25641318Y-21025188D01*
X25873363Y-20954798D01*
X26087216Y-20840491D01*
X26274660Y-20686660D01*
X26428491Y-20499216D01*
X26525353Y-20318000D01*
X26550446Y-20318000D01*
X26575300Y-20320448D01*
X26600154Y-20318000D01*
X26674493Y-20310678D01*
X26769875Y-20281745D01*
X26792445Y-20269681D01*
X26797202Y-20285363D01*
X26911509Y-20499216D01*
X27065340Y-20686660D01*
X27252784Y-20840491D01*
X27466637Y-20954798D01*
X27698682Y-21025188D01*
X27879528Y-21043000D01*
X28000472Y-21043000D01*
X28181318Y-21025188D01*
X28413363Y-20954798D01*
X28627216Y-20840491D01*
X28814660Y-20686660D01*
X28968491Y-20499216D01*
X29082798Y-20285363D01*
X29153188Y-20053318D01*
X29176956Y-19812000D01*
X29153188Y-19570682D01*
X29082798Y-19338637D01*
X28978067Y-19142700D01*
X29945399Y-19142700D01*
X29873358Y-19214741D01*
X29787887Y-19342658D01*
X29729013Y-19484791D01*
X29699000Y-19635678D01*
X29699000Y-19789522D01*
X29729013Y-19940409D01*
X29787887Y-20082542D01*
X29873358Y-20210459D01*
X29974001Y-20311102D01*
X29974000Y-22200154D01*
X29971553Y-22225000D01*
X29974000Y-22249846D01*
X29974000Y-22249853D01*
X29981322Y-22324192D01*
X30010255Y-22419574D01*
X30057241Y-22507479D01*
X30120473Y-22584527D01*
X30139785Y-22600376D01*
X30438472Y-22899063D01*
X30364058Y-22929887D01*
X30236141Y-23015358D01*
X30127358Y-23124141D01*
X30041887Y-23252058D01*
X29983013Y-23394191D01*
X29953000Y-23545078D01*
X29953000Y-23698922D01*
X29983013Y-23849809D01*
X30041887Y-23991942D01*
X30127358Y-24119859D01*
X30236141Y-24228642D01*
X30364058Y-24314113D01*
X30506191Y-24372987D01*
X30657078Y-24403000D01*
X30799409Y-24403000D01*
X31408938Y-25012530D01*
X31424783Y-25031837D01*
X31501831Y-25095069D01*
X31589735Y-25142055D01*
X31685117Y-25170988D01*
X31784310Y-25180758D01*
X31809164Y-25178310D01*
X35257719Y-25178310D01*
X41534628Y-31455220D01*
X41550473Y-31474527D01*
X41627521Y-31537759D01*
X41715425Y-31584745D01*
X41810807Y-31613678D01*
X41910000Y-31623448D01*
X41934854Y-31621000D01*
X42202406Y-31621000D01*
X42273862Y-31679642D01*
X42294563Y-31693474D01*
X42467450Y-31785884D01*
X42490451Y-31795412D01*
X42678044Y-31852317D01*
X42702462Y-31857173D01*
X42897552Y-31876388D01*
X42910000Y-31877000D01*
X45547558Y-31877000D01*
X45643078Y-31896000D01*
X45796922Y-31896000D01*
X45892442Y-31877000D01*
X60787558Y-31877000D01*
X60883078Y-31896000D01*
X61036922Y-31896000D01*
X61132442Y-31877000D01*
X65040000Y-31877000D01*
X65052448Y-31876388D01*
X65247538Y-31857173D01*
X65271956Y-31852317D01*
X65459549Y-31795412D01*
X65482550Y-31785884D01*
X65655437Y-31693474D01*
X65676138Y-31679642D01*
X65827675Y-31555279D01*
X65845279Y-31537675D01*
X65969642Y-31386138D01*
X65983474Y-31365437D01*
X66075884Y-31192550D01*
X66085412Y-31169549D01*
X66142317Y-30981956D01*
X66147173Y-30957538D01*
X66166388Y-30762448D01*
X66167000Y-30750000D01*
X66167000Y-16240000D01*
X66166388Y-16227552D01*
X66147173Y-16032462D01*
X66142317Y-16008044D01*
X66085412Y-15820451D01*
X66075884Y-15797450D01*
X65983474Y-15624563D01*
X65969642Y-15603862D01*
X65845279Y-15452325D01*
X65827675Y-15434721D01*
X65676138Y-15310358D01*
X65655437Y-15296526D01*
X65482550Y-15204116D01*
X65459549Y-15194588D01*
X65271956Y-15137683D01*
X65247538Y-15132827D01*
X65052448Y-15113612D01*
X65040000Y-15113000D01*
X61132442Y-15113000D01*
X61036922Y-15094000D01*
X60883078Y-15094000D01*
X60787558Y-15113000D01*
X45892442Y-15113000D01*
X45796922Y-15094000D01*
X45643078Y-15094000D01*
X45547558Y-15113000D01*
X42910000Y-15113000D01*
X42897552Y-15113612D01*
X42702462Y-15132827D01*
X42678044Y-15137683D01*
X42490451Y-15194588D01*
X42467450Y-15204116D01*
X42294563Y-15296526D01*
X42273862Y-15310358D01*
X42202406Y-15369000D01*
X32663845Y-15369000D01*
X32638999Y-15366553D01*
X32614153Y-15369000D01*
X32614146Y-15369000D01*
X32549694Y-15375348D01*
X32539806Y-15376322D01*
X32523841Y-15381165D01*
X32444425Y-15405255D01*
X32356521Y-15452241D01*
X32279473Y-15515473D01*
X32263628Y-15534780D01*
X31307409Y-16491000D01*
X31165078Y-16491000D01*
X31014191Y-16521013D01*
X30872058Y-16579887D01*
X30744141Y-16665358D01*
X30635358Y-16774141D01*
X30549887Y-16902058D01*
X30491013Y-17044191D01*
X30461000Y-17195078D01*
X30461000Y-17348922D01*
X30491013Y-17499809D01*
X30549887Y-17641942D01*
X30635358Y-17769859D01*
X30744141Y-17878642D01*
X30872058Y-17964113D01*
X30988000Y-18012138D01*
X30988000Y-18130700D01*
X29171986Y-18130700D01*
X29172843Y-18122000D01*
X29172843Y-16422000D01*
X29165487Y-16347311D01*
X29143701Y-16275492D01*
X29108322Y-16209304D01*
X29060711Y-16151289D01*
X29002696Y-16103678D01*
X28936508Y-16068299D01*
X28864689Y-16046513D01*
X28790000Y-16039157D01*
X27090000Y-16039157D01*
X27015311Y-16046513D01*
X26943492Y-16068299D01*
X26877304Y-16103678D01*
X26819289Y-16151289D01*
X26771678Y-16209304D01*
X26736299Y-16275492D01*
X26714513Y-16347311D01*
X26707157Y-16422000D01*
X26707157Y-18122000D01*
X26714513Y-18196689D01*
X26736299Y-18268508D01*
X26771678Y-18334696D01*
X26819289Y-18392711D01*
X26869989Y-18434319D01*
X26316269Y-18988040D01*
X26274660Y-18937340D01*
X26087216Y-18783509D01*
X25873363Y-18669202D01*
X25641318Y-18598812D01*
X25460472Y-18581000D01*
X25339528Y-18581000D01*
X25158682Y-18598812D01*
X24926637Y-18669202D01*
X24712784Y-18783509D01*
X24525340Y-18937340D01*
X24371509Y-19124784D01*
X24257202Y-19338637D01*
X24186812Y-19570682D01*
X24163044Y-19812000D01*
X22352000Y-19812000D01*
X22352000Y-17272000D01*
X24163044Y-17272000D01*
X24186812Y-17513318D01*
X24257202Y-17745363D01*
X24371509Y-17959216D01*
X24525340Y-18146660D01*
X24712784Y-18300491D01*
X24926637Y-18414798D01*
X25158682Y-18485188D01*
X25339528Y-18503000D01*
X25460472Y-18503000D01*
X25641318Y-18485188D01*
X25873363Y-18414798D01*
X26087216Y-18300491D01*
X26274660Y-18146660D01*
X26428491Y-17959216D01*
X26542798Y-17745363D01*
X26613188Y-17513318D01*
X26636956Y-17272000D01*
X26613188Y-17030682D01*
X26542798Y-16798637D01*
X26428491Y-16584784D01*
X26274660Y-16397340D01*
X26087216Y-16243509D01*
X25873363Y-16129202D01*
X25641318Y-16058812D01*
X25460472Y-16041000D01*
X25339528Y-16041000D01*
X25158682Y-16058812D01*
X24926637Y-16129202D01*
X24712784Y-16243509D01*
X24525340Y-16397340D01*
X24371509Y-16584784D01*
X24257202Y-16798637D01*
X24186812Y-17030682D01*
X24163044Y-17272000D01*
X22352000Y-17272000D01*
X22352000Y-15611234D01*
X22369376Y-15434811D01*
X22419022Y-15271150D01*
X22499638Y-15120328D01*
X22608130Y-14988130D01*
X22740328Y-14879638D01*
X22891150Y-14799022D01*
X23054811Y-14749376D01*
X23231234Y-14732000D01*
X65668766Y-14732000D01*
X65845189Y-14749376D01*
M02*
